<?xml version="1.0" encoding="utf-8"?>
<!DOCTYPE svg PUBLIC "-//W3C//DTD SVG 20010904//EN" "http://www.w3.org/TR/2001/REC-SVG-20010904/DTD/svg10.dtd">
<svg height="2419.000000pt" preserveAspectRatio="xMidYMid meet" version="1.0" viewBox="0 0 3629.000000 2419.000000" width="3629.000000pt" xmlns="http://www.w3.org/2000/svg">
<g fill="#FFD700" stroke="#FFD700" transform="translate(0.000000,2419.000000) scale(0.100000,-0.100000)">
<path d="M8100 17035 c-65 -16 -114 -33 -155 -57 -16 -10 -43 -25 -59 -34 -16 -9 -41 -27 -55 -40 -14 -13 -30 -24 -35 -24 -12 0 -98 -91 -149 -158 -82 -107 -125 -168 -145 -202 -34 -58 -102 -201 -102 -215 0 -8 -4 -16 -9 -19 -5 -3 -11 -18 -14 -33 -3 -16 -13 -53 -23 -83 -40 -132 -60 -377 -45 -559 14 -178 26 -237 81 -386 40 -108 131 -250 168 -261 9 -3 26 -10 37 -14 11 -5 34 -11 50 -14 17 -3 62 -12 100 -21 39 -9 85 -19 104 -22 l34 -6 -30 44 c-40 59 -128 243 -143 299 -7 25 -17 56 -23 70 -15 36 -26 108 -38 246 -17 197 20 536 64 580 4 4 7 16 7 26 0 16 6 32 31 78 5 8 16 31 26 50 22 45 63 110 86 134 9 11 17 23 17 27 0 12 84 93 152 146 66 51 158 100 243 129 67 22 268 23 345 1 93 -26 185 -58 194 -68 6 -5 17 -9 26 -9 29 0 153 -95 227 -174 39 -42 100 -122 135 -179 61 -98 73 -120 106 -197 8 -19 19 -43 23 -52 5 -10 9 -27 9 -37 0 -11 5 -23 10 -26 6 -3 10 -19 10 -34 0 -15 4 -31 9 -36 23 -24 35 -158 35 -375 0 -124 -4 -241 -8 -260 -27 -132 -72 -293 -95 -338 -5 -9 -19 -38 -32 -65 -12 -26 -28 -52 -36 -58 -7 -6 -13 -16 -13 -21 0 -22 -75 -111 -102 -123 -58 -24 -7 -37 194 -51 l77 -5 40 40 c23 23 41 48 41 56 0 8 5 15 10 15 6 0 10 8 10 18 0 10 3 22 7 26 11 11 43 99 43 119 0 9 4 25 9 35 26 52 48 194 62 402 15 237 39 400 60 425 5 5 9 17 9 27 0 10 4 26 9 36 4 9 16 35 26 57 9 22 21 48 26 57 5 10 9 23 9 29 0 30 154 240 225 306 42 39 72 73 68 76 -4 3 -34 10 -65 17 -46 11 -66 10 -103 0 -25 -7 -48 -17 -51 -21 -3 -5 -12 -9 -21 -9 -31 0 -139 -60 -159 -87 -32 -44 -47 -106 -41 -160 6 -46 -4 -127 -17 -140 -15 -15 -46 31 -46 68 0 21 -6 56 -14 76 -7 21 -19 56 -25 78 -14 46 -20 59 -54 135 -64 141 -87 183 -156 284 -52 76 -180 215 -231 249 -170 116 -245 154 -375 192 -33 10 -70 22 -83 26 -36 14 -438 8 -502 -6z"/>
<path d="M7615 17025 c-5 -1 -37 -8 -70 -15 -97 -19 -137 -31 -195 -58 -50 -23 -127 -69 -140 -82 -3 -3 -18 -12 -33 -20 -43 -22 -165 -160 -218 -245 -58 -96 -129 -240 -129 -264 0 -6 -4 -19 -9 -29 -9 -17 -21 -59 -41 -148 -48 -214 -52 -562 -9 -754 6 -25 14 -63 19 -85 21 -95 29 -124 50 -190 12 -38 26 -79 30 -90 5 -11 11 -31 13 -45 3 -14 14 -50 26 -80 12 -30 21 -67 21 -82 0 -15 5 -39 10 -53 l10 -27 22 28 c28 37 29 37 113 109 86 74 106 85 164 94 53 8 54 15 19 91 -35 79 -45 104 -56 145 -6 22 -22 78 -36 125 -36 121 -39 150 -39 395 -1 215 4 266 39 420 8 39 18 85 21 103 3 18 9 35 14 38 5 3 9 14 9 25 0 37 144 316 180 349 3 3 17 21 30 40 14 19 49 63 80 96 30 34 64 72 76 85 11 13 44 43 72 67 29 24 52 47 52 53 0 8 -71 12 -95 4z"/>
<path d="M8350 16520 c-14 -5 -52 -16 -85 -26 -33 -10 -62 -21 -65 -24 -3 -3 -22 -14 -43 -24 -98 -50 -201 -176 -265 -326 -31 -70 -42 -105 -42 -126 0 -12 -4 -25 -9 -28 -4 -3 -11 -27 -14 -53 -4 -27 -11 -82 -16 -123 -13 -96 -13 -272 0 -330 5 -25 12 -64 16 -88 3 -23 10 -45 14 -48 5 -3 9 -18 9 -33 0 -25 14 -64 41 -113 5 -10 9 -23 9 -29 0 -59 159 -259 241 -303 106 -57 135 -70 179 -78 25 -5 65 -13 90 -18 25 -4 63 -13 85 -18 72 -17 239 -35 280 -29 59 8 131 25 152 35 10 6 35 18 56 28 56 28 177 166 177 203 0 5 3 11 8 13 12 5 42 68 42 88 0 10 4 21 9 24 5 3 11 18 14 33 3 16 13 55 22 88 46 163 50 480 7 610 -5 17 -15 50 -22 75 -18 64 -22 75 -69 170 -45 90 -60 117 -76 135 -5 7 -19 25 -30 40 -43 61 -121 137 -179 174 -53 33 -121 61 -252 101 -36 12 -248 11 -284 0z m305 -540 c69 -13 118 -40 167 -92 45 -48 88 -122 88 -152 0 -7 7 -30 15 -49 19 -47 19 -121 -1 -211 -29 -129 -88 -216 -172 -252 -46 -19 -217 -23 -234 -6 -7 7 -22 12 -33 12 -25 0 -127 96 -152 143 -10 18 -23 52 -30 77 -14 50 -18 291 -5 306 5 5 15 29 23 54 9 29 33 64 69 101 48 49 63 58 120 72 36 8 74 13 85 10 11 -3 38 -8 60 -13z"/>
<path d="M8550 15784 c-48 -21 -68 -41 -90 -92 -34 -77 -23 -155 35 -240 31 -45 66 -62 130 -62 81 0 117 35 139 134 24 107 -18 206 -106 249 -63 31 -62 31 -108 11z"/>
<path d="M19166 16521 c-3 -4 -24 -11 -46 -15 -22 -3 -57 -16 -77 -27 -48 -26 -149 -128 -194 -194 -41 -60 -109 -192 -109 -211 0 -8 -4 -14 -10 -14 -5 0 -10 -11 -10 -23 0 -13 -3 -27 -7 -31 -11 -11 -43 -99 -43 -118 0 -10 -4 -18 -10 -18 -5 0 -10 -11 -10 -25 0 -13 -6 -39 -14 -57 -23 -54 -36 -103 -36 -131 0 -14 -4 -29 -10 -32 -5 -3 -10 -17 -10 -31 0 -14 -5 -35 -12 -47 -13 -25 -27 -82 -35 -142 -3 -22 -9 -44 -14 -50 -5 -5 -9 -24 -9 -42 0 -19 -7 -50 -15 -70 -8 -19 -15 -47 -15 -61 0 -14 -4 -39 -9 -56 -8 -27 -27 -109 -46 -201 -7 -33 -20 -106 -34 -187 -5 -29 -14 -69 -20 -88 -6 -19 -11 -56 -11 -82 0 -26 -4 -50 -10 -53 -5 -3 -10 -26 -10 -50 0 -25 -4 -64 -10 -87 -34 -154 -41 -266 -38 -558 3 -192 8 -316 17 -355 20 -94 32 -139 42 -157 5 -10 9 -26 9 -35 0 -10 11 -38 25 -62 14 -23 25 -49 25 -57 0 -8 3 -14 8 -14 4 0 16 -16 26 -35 40 -74 170 -172 280 -210 45 -16 264 -21 294 -7 9 5 44 22 77 37 106 51 198 164 260 319 8 21 15 49 15 62 0 12 4 25 9 28 5 3 11 23 14 43 3 21 13 74 22 118 10 44 21 118 26 165 4 47 13 121 18 165 5 44 14 123 20 175 12 116 26 160 52 160 18 0 23 -7 50 -77 5 -13 13 -33 19 -45 20 -47 40 -114 40 -135 0 -12 4 -24 9 -27 5 -3 11 -20 14 -38 5 -33 22 -88 38 -120 5 -10 9 -27 9 -38 0 -11 4 -28 9 -38 23 -46 41 -95 41 -112 0 -11 4 -28 9 -38 5 -9 17 -44 26 -77 10 -33 21 -64 26 -69 5 -6 9 -20 9 -32 0 -13 5 -26 10 -29 6 -3 10 -16 10 -28 0 -12 7 -31 15 -41 8 -11 15 -28 15 -38 0 -10 5 -18 10 -18 6 0 10 -7 10 -15 0 -14 10 -37 32 -75 5 -8 11 -23 14 -32 4 -10 10 -18 15 -18 5 0 9 -5 9 -12 0 -15 66 -100 122 -158 98 -102 189 -162 293 -194 33 -10 69 -23 80 -28 28 -12 289 -4 344 11 122 33 257 141 344 274 60 90 127 222 127 247 0 9 4 20 8 25 5 6 17 33 26 60 10 28 21 59 26 70 4 11 13 38 19 60 6 22 16 58 22 80 11 39 20 79 38 168 4 23 13 55 20 70 6 16 11 45 11 66 0 20 4 41 9 47 5 5 12 32 14 59 9 86 26 185 33 197 4 6 11 40 16 77 5 36 13 93 17 126 5 33 14 96 21 139 6 44 14 84 18 90 3 6 10 53 14 106 25 282 54 556 62 568 10 17 8 692 -2 706 -5 6 -12 31 -16 56 -19 125 -88 272 -165 349 -54 55 -68 64 -141 94 -67 28 -199 39 -280 22 -148 -30 -308 -196 -380 -395 -7 -19 -18 -48 -25 -65 -20 -50 -35 -101 -35 -117 0 -9 -7 -29 -15 -44 -8 -16 -15 -43 -15 -59 0 -17 -4 -35 -9 -40 -5 -6 -12 -30 -15 -55 -11 -94 -22 -155 -29 -167 -8 -12 -23 -97 -37 -203 -23 -181 -30 -221 -36 -232 -4 -6 -11 -45 -16 -87 -5 -42 -14 -107 -18 -146 -5 -38 -14 -109 -19 -158 -6 -48 -15 -104 -20 -125 -6 -20 -11 -65 -11 -99 0 -60 -1 -63 -24 -63 -22 0 -25 6 -31 48 -3 26 -10 57 -16 70 -5 13 -9 36 -9 53 0 16 -4 37 -10 47 -12 22 -37 133 -58 260 -4 26 -11 52 -15 58 -3 6 -11 37 -17 70 -6 32 -15 79 -20 104 -5 25 -13 69 -19 97 -5 29 -13 58 -17 65 -4 7 -11 32 -16 55 -4 24 -12 62 -17 86 -6 23 -14 60 -19 82 -5 22 -14 56 -20 75 -6 19 -15 53 -20 75 -24 94 -34 132 -44 160 -5 17 -12 41 -15 55 -2 14 -9 36 -15 50 -28 64 -42 96 -49 112 -5 10 -9 25 -9 33 0 8 -4 23 -9 33 -5 9 -21 42 -36 72 -15 30 -33 64 -39 75 -12 23 -102 150 -126 178 -19 24 -165 127 -178 127 -6 0 -23 6 -39 14 -15 8 -44 19 -64 25 -42 13 -245 15 -253 2z m200 -237 c63 -15 174 -111 231 -200 13 -20 89 -175 102 -209 21 -53 29 -73 45 -108 9 -21 16 -46 16 -57 0 -10 5 -22 10 -25 6 -3 10 -15 10 -26 0 -11 12 -57 26 -102 41 -131 44 -142 44 -168 0 -14 4 -29 9 -34 10 -11 30 -91 60 -237 4 -24 13 -56 20 -71 6 -16 11 -41 11 -57 0 -16 5 -32 10 -35 6 -3 10 -20 10 -37 0 -18 4 -45 9 -62 18 -62 41 -172 41 -197 0 -14 4 -29 9 -35 5 -5 11 -27 14 -49 3 -22 12 -65 22 -95 9 -30 19 -70 22 -88 3 -18 9 -35 14 -38 5 -3 9 -15 9 -27 1 -24 33 -123 44 -134 3 -3 6 -16 6 -28 0 -26 71 -110 110 -130 15 -8 49 -17 76 -20 39 -5 58 -1 93 17 57 29 111 117 111 179 0 16 4 37 9 47 5 9 14 46 21 82 7 36 17 85 22 110 5 25 13 77 18 115 5 39 13 105 19 147 5 42 12 82 16 88 4 6 11 48 16 93 5 45 14 109 18 142 5 33 14 92 19 131 5 40 13 77 17 84 4 7 11 39 16 71 18 117 28 175 44 239 9 36 20 83 25 105 14 63 26 108 40 140 7 17 16 39 20 50 53 142 155 276 221 289 83 17 101 17 132 6 47 -19 105 -78 128 -130 11 -25 24 -54 29 -65 24 -55 44 -250 44 -425 -1 -222 -28 -593 -59 -795 -9 -60 -21 -139 -25 -175 -5 -36 -11 -78 -15 -95 -3 -16 -12 -68 -20 -115 -8 -47 -17 -98 -20 -115 -7 -32 -18 -107 -33 -216 -5 -37 -13 -72 -17 -79 -4 -6 -12 -40 -17 -73 -16 -111 -26 -161 -43 -222 -9 -33 -20 -78 -25 -100 -20 -92 -60 -212 -96 -290 -13 -28 -24 -56 -24 -63 0 -6 -4 -12 -10 -12 -5 0 -10 -7 -10 -15 0 -9 -10 -32 -23 -53 -12 -20 -29 -50 -37 -65 -23 -47 -134 -152 -186 -178 -40 -19 -64 -24 -131 -23 -167 1 -278 61 -428 234 -32 36 -155 273 -155 297 0 7 -4 21 -9 31 -5 9 -17 43 -26 74 -9 32 -21 60 -26 64 -5 3 -9 16 -9 29 0 13 -4 26 -9 29 -5 3 -11 20 -14 38 -5 33 -22 88 -38 120 -5 10 -9 27 -9 38 0 11 -4 28 -9 38 -14 28 -33 85 -38 115 -3 15 -9 30 -14 33 -5 3 -9 18 -9 34 0 16 -4 32 -10 35 -5 3 -10 15 -10 25 0 17 -18 66 -41 112 -5 10 -9 24 -9 31 0 22 -49 109 -78 140 -46 48 -108 71 -192 72 -67 0 -80 -4 -119 -30 -72 -49 -108 -142 -122 -310 -20 -242 -27 -311 -33 -325 -3 -8 -11 -46 -17 -85 -11 -77 -24 -161 -34 -215 -4 -19 -13 -49 -21 -67 -8 -17 -14 -38 -14 -47 0 -9 -4 -24 -9 -34 -5 -9 -17 -34 -26 -55 -27 -62 -102 -131 -164 -150 -76 -24 -124 -21 -179 9 -50 28 -121 98 -140 139 -36 77 -78 218 -88 295 -12 95 -10 436 3 570 17 160 31 258 39 271 7 12 19 86 34 204 5 39 16 99 25 135 17 65 29 124 40 190 3 19 12 58 20 85 28 101 35 133 35 163 0 17 4 33 9 36 5 3 11 23 14 43 6 46 26 122 38 145 5 10 9 34 9 53 0 19 4 43 9 53 8 15 16 43 52 177 12 45 36 111 50 137 5 10 9 27 9 38 0 11 4 28 8 38 70 144 93 185 126 232 57 79 108 124 158 139 24 7 52 17 63 22 19 8 30 7 91 -7z"/>
<path d="M15155 16429 c-49 -5 -115 -13 -145 -18 -30 -6 -77 -14 -105 -19 -46 -8 -152 -41 -200 -61 -41 -18 -140 -66 -150 -73 -220 -161 -301 -255 -396 -458 -94 -204 -117 -503 -88 -1185 5 -137 14 -434 20 -660 9 -377 17 -533 34 -625 10 -59 37 -174 45 -195 4 -11 14 -40 21 -65 57 -197 211 -391 364 -459 124 -54 151 -61 256 -61 115 0 218 30 287 83 24 19 96 91 112 113 23 30 66 124 79 169 35 132 41 203 40 500 0 196 4 302 10 308 6 6 11 18 11 27 0 25 53 70 96 83 22 6 174 14 344 18 308 6 335 9 425 34 28 7 70 19 95 25 65 17 261 115 323 161 115 87 279 275 301 347 4 12 12 22 17 22 5 0 9 6 9 14 0 8 9 31 19 53 11 21 26 54 34 73 14 34 20 54 51 175 20 81 41 327 32 395 -3 30 -10 94 -15 141 -5 47 -14 95 -20 107 -6 11 -11 34 -11 51 0 16 -4 33 -10 36 -5 3 -10 19 -10 35 0 16 -4 32 -10 35 -5 3 -10 13 -10 22 0 17 -15 52 -69 163 -20 41 -39 77 -43 78 -5 2 -8 10 -8 17 0 8 -6 20 -12 27 -7 7 -33 40 -58 73 -112 152 -283 279 -495 370 -62 26 -77 32 -120 44 -22 6 -58 16 -80 22 -55 15 -132 27 -250 39 -55 5 -129 14 -165 20 -75 11 -421 11 -555 -1z m665 -287 c150 -20 207 -30 228 -41 11 -6 31 -11 44 -11 25 0 93 -22 104 -33 4 -4 14 -7 21 -7 30 0 174 -80 220 -121 66 -60 152 -147 188 -190 36 -42 47 -60 98 -164 21 -44 43 -88 48 -97 5 -10 9 -27 9 -38 0 -11 4 -28 9 -38 40 -80 57 -479 25 -591 -9 -31 -20 -64 -25 -73 -5 -10 -9 -27 -9 -37 0 -11 -4 -23 -10 -26 -5 -3 -10 -14 -10 -24 0 -10 -7 -24 -15 -31 -8 -7 -15 -21 -15 -31 0 -11 -4 -19 -10 -19 -5 0 -10 -5 -10 -12 0 -6 -11 -26 -25 -44 -14 -18 -25 -37 -25 -42 0 -16 -193 -207 -225 -222 -16 -8 -32 -18 -35 -21 -12 -14 -98 -57 -125 -62 -17 -3 -50 -13 -75 -23 -76 -29 -144 -36 -475 -43 -190 -5 -332 -12 -350 -19 -16 -6 -50 -17 -75 -24 -76 -22 -200 -167 -200 -235 0 -10 -4 -23 -10 -29 -6 -6 -11 -149 -13 -354 -5 -438 -15 -497 -102 -586 -43 -44 -58 -53 -105 -62 -56 -11 -135 -2 -172 18 -10 6 -24 10 -32 10 -26 0 -150 145 -185 216 -19 38 -38 77 -42 86 -5 10 -9 24 -9 32 0 7 -7 27 -15 42 -8 16 -15 39 -15 51 0 12 -4 24 -9 27 -14 9 -36 183 -46 371 -13 236 -29 990 -29 1370 -1 466 5 513 79 690 25 60 40 90 53 103 6 8 26 33 42 57 17 24 45 54 63 66 17 13 46 35 63 50 30 25 74 48 169 89 97 41 143 53 283 70 41 5 77 11 80 15 10 9 586 -2 672 -13z"/>
<path d="M15460 15670 c-8 -5 -26 -10 -40 -10 -34 0 -117 -50 -162 -97 -40 -42 -88 -126 -88 -154 0 -10 -4 -20 -9 -23 -15 -9 -38 -162 -47 -310 -7 -111 9 -325 27 -358 5 -10 9 -25 9 -33 0 -24 62 -116 102 -151 39 -34 99 -65 163 -84 87 -25 324 7 365 50 3 3 19 12 35 21 58 32 163 174 191 258 9 28 20 54 25 57 5 3 9 19 9 35 0 17 5 40 11 51 14 25 15 334 1 351 -5 7 -12 26 -15 42 -8 45 -31 105 -39 105 -5 0 -8 7 -8 15 0 31 -126 149 -196 184 -102 51 -290 79 -334 51z m234 -285 c48 -33 84 -74 92 -105 4 -14 11 -30 16 -37 10 -13 5 -261 -6 -308 -14 -58 -67 -154 -99 -181 -77 -65 -186 -83 -248 -41 -43 29 -79 99 -79 154 0 23 -5 54 -12 68 -9 20 -9 55 1 153 17 172 36 237 84 284 l37 38 89 0 c78 0 93 -3 125 -25z"/>
<path d="M10266 16261 c-3 -5 -21 -12 -39 -15 -18 -3 -43 -15 -55 -26 -12 -11 -25 -20 -30 -20 -21 0 -173 -160 -216 -227 -25 -39 -46 -76 -46 -82 0 -6 -3 -11 -8 -11 -7 0 -13 -13 -49 -100 -8 -19 -19 -43 -24 -52 -5 -10 -9 -26 -9 -36 0 -10 -4 -22 -9 -27 -11 -13 -31 -88 -41 -155 -17 -112 -19 -138 -31 -295 -9 -135 -9 -179 5 -280 24 -186 34 -228 80 -327 21 -46 34 -60 69 -77 24 -12 53 -21 65 -21 11 0 24 -4 27 -10 3 -5 17 -10 31 -10 14 0 34 -5 45 -11 35 -18 41 -5 14 31 -15 19 -33 51 -41 70 -8 19 -22 48 -30 63 -8 16 -14 37 -14 47 0 10 -4 21 -9 24 -10 7 -13 23 -41 221 -19 131 -20 163 -10 255 20 190 38 290 64 360 10 25 20 54 23 65 4 11 22 43 40 72 18 29 33 54 33 57 0 10 42 58 100 116 67 67 96 90 113 90 7 0 18 5 25 12 34 34 179 51 239 27 91 -36 144 -71 218 -144 72 -70 91 -97 133 -182 5 -10 14 -28 20 -40 7 -13 12 -29 12 -37 0 -7 7 -27 15 -42 8 -16 15 -36 15 -44 0 -9 4 -20 9 -25 10 -11 15 -48 31 -234 13 -148 -4 -445 -29 -506 -5 -11 -17 -40 -26 -65 -56 -143 -84 -198 -127 -253 -21 -27 -38 -53 -38 -58 0 -4 -12 -15 -27 -23 l-28 -14 28 -11 c49 -19 111 -13 150 13 70 48 157 159 157 201 0 7 7 26 15 41 8 16 15 37 15 46 0 9 4 19 9 22 5 3 11 23 15 43 3 21 10 65 15 98 27 176 31 221 26 355 -3 80 -10 163 -15 185 -5 22 -10 59 -10 82 0 23 -4 45 -10 48 -5 3 -10 17 -10 31 0 31 -44 171 -77 244 -46 102 -98 200 -105 200 -5 0 -8 5 -8 12 0 43 -185 227 -276 274 -13 7 -36 19 -51 27 -15 8 -44 20 -64 26 -42 13 -245 15 -253 2z"/>
<path d="M3480 15880 c-8 -5 -27 -10 -42 -10 -15 0 -30 -4 -33 -10 -3 -5 -21 -17 -39 -25 -79 -38 -120 -89 -180 -228 -15 -34 -16 -159 -16 -1380 0 -1260 1 -1346 18 -1399 10 -32 21 -60 25 -64 4 -4 7 -14 7 -23 0 -23 84 -127 117 -145 36 -19 92 -46 118 -57 20 -8 40 -12 152 -30 39 -6 497 -8 1275 -6 1299 4 1237 2 1348 54 25 11 60 36 78 55 37 39 92 140 92 168 0 10 4 21 9 24 19 12 22 183 22 1315 -1 1161 -5 1476 -22 1487 -5 3 -9 14 -9 25 0 58 -103 182 -180 216 -98 44 -39 43 -1415 43 -829 0 -1316 -4 -1325 -10z m2149 -430 c42 -12 77 -43 102 -92 29 -57 24 -78 -26 -128 l-46 -45 -605 -3 c-379 -1 -612 -6 -624 -12 -10 -6 -33 -10 -49 -10 -17 0 -39 -4 -49 -8 -9 -5 -32 -16 -50 -25 -19 -9 -38 -17 -43 -17 -5 0 -34 -17 -65 -37 -31 -21 -68 -45 -81 -54 -49 -33 -114 -105 -161 -179 -49 -77 -57 -94 -87 -170 -10 -25 -21 -54 -25 -65 -11 -25 -19 -65 -30 -135 -4 -30 -13 -89 -20 -130 -7 -50 -10 -264 -9 -650 0 -316 1 -582 0 -591 -1 -21 -49 -31 -102 -23 -43 7 -99 55 -99 85 0 10 -4 21 -10 24 -7 4 -10 350 -10 1005 0 655 3 1001 10 1005 6 3 10 17 10 31 0 14 11 40 25 58 14 18 25 36 25 40 0 13 73 76 105 90 17 7 46 20 65 29 31 14 134 16 925 16 551 1 903 -3 924 -9z m-624 -622 c115 -30 174 -65 255 -149 133 -136 194 -297 193 -509 -1 -104 -12 -208 -24 -216 -5 -3 -9 -14 -9 -25 0 -10 -16 -53 -36 -94 -63 -132 -212 -251 -359 -288 -111 -27 -289 -18 -390 20 -22 9 -49 19 -60 23 -67 24 -121 55 -160 91 -43 39 -125 157 -125 179 0 6 -4 18 -9 28 -16 32 -40 117 -52 187 -20 120 7 349 52 437 5 10 9 23 9 30 0 22 73 124 123 171 72 70 196 123 302 131 78 5 246 -4 290 -16z m464 -1767 c85 -10 111 -31 111 -91 0 -43 -25 -75 -65 -86 -46 -12 -1337 -16 -1349 -4 -5 5 -20 10 -31 10 -12 0 -40 16 -63 36 -47 39 -55 80 -26 122 l15 22 667 0 c367 -1 700 -5 741 -9z"/>
<path d="M10370 15828 c-14 -6 -41 -18 -60 -26 -58 -25 -153 -132 -199 -223 -23 -45 -41 -90 -41 -100 0 -10 -4 -21 -10 -24 -5 -3 -10 -18 -10 -32 0 -15 -4 -40 -9 -57 -40 -136 -54 -318 -31 -418 13 -61 30 -139 36 -168 7 -31 13 -47 52 -130 49 -103 142 -193 231 -220 58 -19 235 -18 277 1 99 44 205 198 262 379 49 152 49 436 0 590 -37 118 -88 226 -140 297 -38 53 -95 103 -116 103 -7 0 -12 3 -12 8 0 26 -178 42 -230 20z m165 -403 c41 -9 93 -63 126 -131 29 -61 30 -71 30 -182 0 -172 -39 -265 -131 -312 -102 -52 -203 -7 -261 118 -28 58 -30 71 -30 182 0 150 19 216 82 281 29 31 103 60 137 53 12 -2 33 -6 47 -9z"/>
<path d="M10418 15240 c-38 -41 -38 -41 -38 -126 0 -84 7 -108 44 -151 15 -17 30 -23 62 -23 37 0 47 5 70 35 23 31 26 44 28 127 1 86 -1 95 -24 121 -26 30 -70 57 -91 57 -7 0 -29 -18 -51 -40z"/>
<path d="M24952 14857 c-46 -14 -132 -93 -132 -121 0 -12 -5 -27 -11 -33 -6 -6 -14 -40 -16 -76 -5 -61 -4 -68 27 -110 18 -25 29 -50 26 -56 -6 -9 -42 -28 -101 -51 -66 -26 -93 -41 -190 -104 -78 -51 -223 -196 -267 -266 -41 -65 -88 -163 -88 -182 0 -8 -4 -18 -8 -23 -32 -39 -56 -190 -56 -345 1 -161 14 -241 57 -350 24 -64 103 -199 145 -252 57 -71 186 -183 250 -215 31 -16 67 -35 80 -41 54 -29 63 -32 82 -32 11 0 28 -4 38 -9 58 -31 129 -42 261 -41 219 4 365 45 525 148 190 123 350 357 395 577 33 164 15 476 -33 590 -61 142 -139 260 -230 348 -32 31 -63 57 -67 57 -4 0 -27 16 -51 36 -47 40 -127 81 -198 104 -25 7 -52 19 -60 26 -8 6 -26 15 -38 19 -20 6 -23 11 -17 33 13 52 17 194 6 205 -6 6 -11 19 -11 29 0 10 -24 42 -52 70 -39 39 -66 56 -101 66 -56 14 -119 14 -165 -1z m175 -34 c44 -21 63 -39 99 -92 40 -59 44 -72 44 -125 0 -71 -17 -134 -41 -146 -9 -6 -55 -10 -101 -11 -45 -1 -111 -2 -144 -2 -70 -1 -81 5 -126 72 -36 51 -51 116 -38 160 22 78 138 171 214 171 22 0 63 -12 93 -27z m-171 -418 c9 -23 -14 -44 -55 -50 -20 -3 -44 -10 -53 -16 -10 -5 -24 -9 -33 -9 -13 0 -67 -27 -140 -71 -16 -10 -46 -27 -65 -38 -19 -10 -71 -58 -114 -105 -71 -77 -91 -103 -133 -171 -23 -36 -71 -140 -84 -180 -7 -22 -17 -44 -21 -49 -11 -14 -10 -301 1 -345 5 -20 15 -63 22 -96 6 -33 22 -80 34 -105 13 -25 31 -64 40 -87 10 -24 22 -43 27 -43 4 0 8 -5 8 -11 0 -28 177 -219 204 -219 9 0 40 -16 70 -35 30 -19 58 -35 62 -35 4 0 26 -9 49 -20 84 -41 153 -52 303 -51 78 0 151 5 162 11 10 5 30 10 43 10 14 0 30 7 37 15 7 8 18 15 26 15 14 0 101 45 119 61 5 5 17 9 27 9 10 0 18 4 18 9 0 5 9 12 20 16 26 8 157 143 185 191 45 78 103 200 114 242 6 23 16 59 22 80 11 38 7 317 -7 432 -5 48 -34 107 -64 130 -4 3 -10 17 -14 32 -3 15 -20 43 -36 62 -17 18 -30 39 -30 46 0 6 -42 53 -93 103 -76 75 -111 102 -194 145 -55 28 -109 52 -120 52 -10 0 -23 4 -28 9 -6 5 -28 11 -50 14 -123 17 -165 32 -151 56 11 18 193 14 246 -5 77 -27 135 -51 175 -72 61 -32 71 -38 101 -62 17 -14 47 -38 67 -54 20 -15 37 -32 37 -36 0 -4 20 -28 45 -54 25 -27 45 -51 45 -55 0 -5 11 -21 24 -36 40 -46 78 -134 71 -162 -4 -19 1 -31 20 -51 14 -14 28 -37 31 -51 2 -14 9 -40 14 -57 12 -38 13 -365 1 -396 -5 -13 -17 -50 -26 -83 -10 -33 -21 -68 -26 -77 -5 -10 -9 -25 -9 -33 0 -42 -87 -181 -164 -263 -45 -48 -181 -162 -193 -162 -5 0 -39 -16 -78 -35 -38 -19 -79 -35 -90 -35 -12 0 -25 -4 -30 -9 -16 -15 -192 -41 -276 -41 -75 0 -207 22 -241 41 -10 5 -27 9 -37 9 -11 0 -23 5 -26 10 -3 6 -14 10 -23 10 -27 0 -122 52 -156 85 -17 17 -41 35 -53 40 -40 19 -163 147 -163 170 0 3 -11 18 -25 33 -14 15 -25 32 -25 38 0 6 -7 17 -16 25 -16 13 -41 64 -64 129 -7 19 -19 49 -26 67 -8 17 -14 57 -15 90 0 32 -4 85 -8 118 -8 62 9 245 28 300 5 17 16 50 23 74 14 49 48 121 93 196 31 51 186 213 264 275 47 38 125 80 150 80 9 1 36 11 61 24 55 28 157 35 166 11z m284 -89 c80 -25 93 -31 209 -94 44 -23 51 -31 51 -57 0 -20 -11 -42 -33 -66 -17 -19 -57 -64 -87 -100 -30 -35 -71 -81 -90 -102 -19 -21 -39 -46 -44 -55 -23 -40 -50 -51 -123 -52 -59 0 -74 3 -82 18 -6 12 -5 23 5 37 11 15 15 51 14 145 0 69 1 134 2 145 1 11 1 40 0 65 -2 32 -5 41 -13 33 -12 -12 -22 -159 -19 -280 1 -41 -3 -74 -9 -78 -6 -3 -11 -16 -11 -29 0 -30 -35 -66 -64 -66 -50 0 -138 79 -193 173 -6 11 -33 42 -60 71 -118 122 -118 134 6 208 69 41 119 63 188 84 84 25 273 25 353 0z m-630 -248 c11 -24 38 -59 58 -79 52 -50 94 -98 125 -144 15 -22 48 -52 75 -66 26 -15 49 -34 50 -44 2 -9 -17 -38 -42 -65 -25 -27 -46 -54 -46 -60 0 -13 -43 -13 -57 1 -14 14 -162 49 -233 56 -30 3 -59 8 -65 13 -5 4 -34 10 -64 14 -57 7 -111 30 -111 46 0 15 53 125 62 128 4 2 8 10 8 17 0 19 63 110 127 182 63 72 76 72 113 1z m983 38 c49 -45 179 -249 166 -260 -23 -19 -114 -76 -129 -81 -11 -4 -20 -10 -20 -14 0 -7 -30 -22 -192 -94 -52 -23 -69 -43 -52 -60 3 -3 23 4 43 17 20 12 52 28 71 35 79 29 216 96 241 117 8 8 29 14 46 14 27 0 32 -4 38 -32 3 -18 10 -51 16 -73 12 -47 6 -300 -8 -365 -13 -57 -30 -100 -40 -100 -5 0 -42 16 -83 36 -41 20 -102 49 -135 64 -33 16 -94 45 -135 64 -41 20 -80 36 -86 36 -19 0 -37 47 -29 77 16 63 17 110 1 116 -9 4 -16 13 -16 22 0 22 -20 55 -52 85 -21 20 -25 29 -17 48 4 12 15 22 24 22 8 0 15 6 15 13 0 7 18 30 40 51 22 21 40 42 40 48 0 6 38 51 84 102 46 50 88 101 95 114 15 29 42 28 74 -2z m-454 -392 c93 -46 145 -183 106 -277 -16 -39 -62 -97 -76 -97 -9 0 -21 -8 -54 -37 -7 -7 -36 -13 -64 -13 -42 0 -54 5 -81 32 -18 17 -43 48 -57 69 -30 46 -46 146 -31 192 15 43 64 105 102 128 38 23 111 25 155 3z m-734 -55 c33 -6 80 -15 105 -19 25 -5 72 -14 106 -19 33 -6 73 -15 88 -21 15 -5 44 -10 65 -10 54 0 65 -18 68 -111 3 -82 -4 -97 -36 -80 -14 8 -27 7 -48 -4 -15 -8 -36 -15 -45 -15 -9 0 -20 -4 -23 -10 -3 -5 -19 -10 -35 -10 -16 0 -32 -4 -35 -10 -3 -5 -15 -10 -25 -10 -11 0 -45 -11 -76 -25 -31 -14 -63 -25 -70 -25 -8 0 -33 -12 -55 -26 -62 -39 -65 -36 -98 109 -6 26 -11 106 -11 178 l0 131 33 -6 c17 -3 59 -11 92 -17z m980 -308 c105 -51 224 -104 305 -135 36 -14 66 -31 68 -40 5 -25 -73 -158 -134 -228 -45 -50 -66 -67 -86 -67 -16 -1 -28 4 -28 12 0 6 -27 41 -60 77 -67 73 -90 99 -139 156 -19 21 -48 49 -65 62 -39 28 -46 83 -16 124 11 15 20 30 20 34 0 12 32 44 44 44 6 0 47 -17 91 -39z m-521 3 c31 -12 12 -74 -48 -159 -20 -27 -36 -58 -36 -67 0 -10 -6 -18 -14 -18 -12 0 -66 -60 -66 -74 0 -3 -11 -17 -24 -31 -29 -32 -60 -94 -51 -103 4 -4 14 2 23 14 61 77 78 99 87 114 30 50 70 105 90 124 34 32 63 85 58 107 -4 15 0 19 21 19 14 0 34 -9 43 -20 10 -11 27 -20 39 -20 42 0 44 -16 42 -259 -2 -163 1 -234 9 -242 19 -19 26 33 19 138 -4 63 -2 123 7 181 8 48 15 100 16 116 1 36 14 52 48 61 16 4 31 1 42 -10 10 -8 21 -15 24 -15 12 0 41 -34 54 -62 6 -14 29 -39 50 -54 21 -16 41 -33 45 -39 3 -5 18 -23 33 -40 14 -16 32 -42 40 -56 8 -14 30 -40 50 -58 l37 -32 -17 -34 c-9 -19 -21 -35 -27 -35 -6 0 -36 -12 -67 -26 -146 -68 -181 -76 -341 -73 -70 2 -189 20 -237 37 -88 31 -179 89 -193 122 -9 22 -16 28 -25 20 -8 -7 -25 1 -56 28 -63 53 -61 50 -115 127 -60 85 -74 115 -74 160 0 32 3 35 38 40 20 3 45 10 54 16 10 5 25 9 34 9 10 0 40 11 68 24 28 13 73 31 100 40 27 9 57 21 65 26 18 11 131 13 155 4z"/>
<path d="M24962 14695 c-24 -24 -30 -35 -21 -41 7 -4 14 -3 17 4 2 6 12 22 23 36 16 20 26 24 49 19 19 -3 30 -1 30 6 0 6 -15 11 -32 10 -24 0 -43 -10 -66 -34z"/>
<path d="M24960 14544 c0 -15 32 -34 59 -34 16 0 33 -4 36 -10 9 -15 45 -12 45 4 0 23 -25 36 -57 30 -18 -4 -33 -1 -37 5 -7 11 -46 16 -46 5z"/>
<path d="M7330 14781 c-48 -11 -90 -29 -90 -38 0 -5 -14 -24 -31 -43 -37 -41 -58 -86 -73 -155 -13 -61 -15 -2487 -2 -2695 4 -74 14 -160 22 -191 8 -31 14 -70 14 -86 0 -16 5 -34 11 -40 6 -6 8 -16 5 -22 -9 -13 -108 -15 -122 -2 -5 5 -27 11 -49 14 -22 3 -58 10 -80 16 -109 27 -131 34 -147 42 -10 5 -28 9 -40 9 -13 0 -41 7 -63 15 -22 8 -57 14 -77 15 -20 0 -40 5 -43 10 -3 6 -24 10 -45 10 -21 0 -42 5 -45 10 -3 6 -21 10 -38 10 -18 1 -43 7 -57 15 -14 8 -39 14 -57 15 -17 0 -35 5 -38 10 -3 6 -26 10 -50 10 -24 0 -47 5 -50 10 -3 6 -18 10 -32 10 -23 0 -92 19 -148 41 -11 4 -33 10 -50 13 -16 2 -48 9 -70 14 -22 6 -67 16 -100 22 -33 7 -68 16 -77 21 -10 5 -20 9 -23 9 -10 0 -5 -779 5 -785 6 -3 10 -19 10 -35 0 -16 6 -41 14 -57 8 -15 20 -41 27 -58 41 -96 170 -166 276 -151 26 4 109 12 183 16 229 16 324 25 339 34 8 5 60 13 115 18 174 15 423 45 451 54 11 4 72 11 135 15 180 13 533 54 548 64 1 1 -29 33 -68 71 -38 38 -70 74 -70 79 0 6 -11 22 -25 37 -14 15 -25 34 -25 43 0 8 -4 15 -9 15 -5 0 -13 10 -17 23 -3 12 -15 34 -25 49 -11 14 -19 37 -19 50 0 13 -4 28 -9 33 -17 18 -34 90 -43 185 -5 52 -12 557 -14 1122 l-5 1027 31 16 c17 9 35 13 40 10 5 -3 39 -10 77 -15 37 -5 97 -16 133 -25 62 -15 100 -23 223 -44 28 -5 72 -14 96 -20 24 -7 51 -9 60 -6 9 3 32 0 51 -6 35 -11 75 -19 202 -37 36 -5 71 -12 76 -16 5 -3 35 -10 68 -16 32 -6 82 -15 109 -21 28 -5 81 -14 119 -19 38 -5 76 -12 85 -16 9 -4 43 -11 76 -15 33 -4 85 -13 115 -19 30 -6 85 -15 122 -20 38 -5 74 -12 80 -17 7 -4 40 -11 73 -15 127 -16 192 -27 255 -43 71 -17 153 -31 272 -44 42 -5 81 -11 86 -15 13 -8 134 -30 305 -55 37 -6 72 -13 78 -16 11 -8 160 -33 314 -54 58 -8 126 -23 191 -42 17 -5 46 -9 65 -9 19 0 52 -7 74 -15 22 -8 57 -14 77 -15 21 0 57 -4 80 -9 96 -22 181 -30 207 -20 39 15 91 69 111 114 42 99 29 526 -20 613 -5 9 -22 46 -38 82 -16 36 -43 83 -59 105 -33 44 -122 95 -165 95 -15 0 -39 5 -53 10 -38 15 -165 40 -199 40 -16 0 -43 4 -60 9 -103 30 -146 41 -191 45 -27 3 -70 10 -95 16 -25 6 -63 14 -85 19 -23 4 -47 11 -55 16 -8 5 -37 12 -65 16 -64 9 -143 24 -225 44 -36 9 -92 20 -125 25 -111 17 -180 29 -245 45 -64 16 -114 26 -235 44 -33 5 -80 14 -105 20 -98 25 -132 31 -162 31 -17 0 -45 4 -62 9 -38 12 -122 29 -198 42 -32 5 -84 13 -115 18 -32 6 -92 14 -134 19 -42 5 -82 13 -89 17 -6 4 -40 12 -73 17 -94 13 -155 25 -232 43 -128 29 -160 36 -215 44 -30 5 -68 14 -83 20 -16 6 -43 11 -62 11 -19 0 -37 5 -40 10 -3 6 -24 10 -45 10 -21 0 -42 5 -45 10 -3 6 -21 10 -39 10 -19 0 -53 7 -76 15 -23 8 -60 15 -81 15 -21 0 -48 4 -61 9 -34 13 -207 21 -248 12z m535 -170 c55 -8 101 -29 127 -57 25 -29 168 -319 168 -342 0 -7 5 -12 10 -12 6 0 10 -7 10 -15 0 -8 26 -70 59 -137 84 -176 111 -237 111 -249 0 -5 8 -28 19 -49 18 -37 18 -40 1 -55 -34 -30 -212 13 -225 55 -3 11 -11 20 -16 20 -5 0 -9 7 -9 15 0 8 -4 23 -9 33 -4 9 -15 33 -23 52 -15 34 -44 96 -72 149 -14 26 -33 70 -46 106 -4 11 -58 122 -120 247 -72 145 -110 233 -106 243 5 13 13 16 39 11 17 -4 55 -10 82 -15z m854 -163 c54 -22 86 -38 101 -50 16 -14 70 -117 70 -134 0 -5 8 -28 19 -50 10 -21 29 -61 41 -89 12 -27 42 -93 67 -145 25 -52 49 -105 54 -117 5 -13 14 -35 20 -50 6 -16 15 -35 20 -43 5 -8 16 -31 25 -50 9 -19 28 -58 41 -86 16 -32 23 -59 19 -72 -6 -18 -13 -20 -64 -15 -31 3 -61 9 -67 13 -5 5 -27 11 -48 15 -34 7 -40 13 -67 72 -17 35 -30 66 -30 69 0 8 -93 209 -176 379 -19 39 -34 75 -34 82 0 6 -16 42 -35 79 -19 37 -35 71 -35 77 0 6 -11 25 -25 43 -24 32 -33 73 -18 88 9 9 85 -1 122 -16z m813 -160 c72 -21 80 -33 298 -463 70 -137 136 -266 146 -285 33 -61 47 -111 35 -123 -13 -13 -126 -10 -152 4 -10 5 -28 9 -42 9 -32 0 -87 66 -87 105 0 8 -11 36 -24 63 -49 97 -212 442 -226 477 -4 11 -29 62 -54 113 -48 96 -54 118 -34 124 13 5 81 -7 140 -24z m-2156 -5 c3 -10 21 -52 41 -93 19 -41 39 -86 45 -100 23 -57 37 -87 58 -131 27 -57 24 -81 -13 -93 -24 -9 -31 -6 -62 24 -19 19 -35 38 -35 44 0 5 -9 20 -21 32 -12 13 -24 46 -30 85 -13 80 -21 218 -15 236 8 19 26 16 32 -4z m2958 -143 c32 -11 66 -30 76 -42 18 -22 85 -153 137 -268 14 -30 29 -63 34 -72 5 -10 9 -24 9 -32 0 -8 4 -16 8 -18 7 -2 115 -216 136 -268 3 -8 15 -28 25 -45 21 -32 27 -110 12 -134 -9 -14 -16 -14 -134 5 -26 4 -44 15 -60 37 -29 42 -47 76 -47 92 0 7 -3 15 -7 17 -5 2 -15 19 -24 38 -9 19 -35 73 -57 120 -61 129 -95 204 -152 335 -12 28 -27 59 -33 70 -38 70 -67 138 -67 158 0 32 63 35 144 7z m696 -119 c46 -15 63 -28 103 -76 26 -33 47 -67 47 -76 0 -10 4 -20 9 -23 5 -4 17 -32 26 -64 9 -31 21 -73 27 -92 16 -49 21 -287 6 -296 -12 -8 -58 39 -58 60 0 11 -31 94 -59 161 -29 67 -46 105 -62 139 -11 22 -19 45 -19 50 0 13 -68 147 -81 161 -14 14 -10 80 5 75 1 0 26 -9 56 -19z"/>
<path d="M6558 14648 c-2 -7 -5 -447 -7 -978 -3 -1020 -3 -1010 -50 -1110 -27 -57 -61 -94 -125 -134 -121 -76 -143 -79 -696 -73 -261 3 -483 6 -494 7 -29 2 -30 -7 -2 -37 15 -15 43 -48 63 -73 56 -69 162 -157 228 -190 l60 -30 382 0 c293 0 406 4 485 15 57 9 111 20 120 25 10 6 27 10 37 10 11 0 23 5 26 10 3 6 13 10 21 10 14 0 68 36 105 70 24 22 109 156 109 172 0 8 4 18 8 24 5 5 16 41 25 79 16 64 17 142 15 895 -3 822 -7 914 -39 972 -5 10 -9 29 -9 43 0 14 -4 25 -10 25 -5 0 -10 6 -10 14 0 17 -74 162 -92 179 -32 31 -121 87 -138 87 -4 0 -10 -6 -12 -12z"/>
<path d="M23203 14513 c-34 -34 -70 -81 -85 -113 -57 -121 -78 -171 -78 -190 0 -11 -4 -20 -10 -20 -5 0 -10 -8 -10 -17 0 -20 -32 -108 -43 -119 -4 -4 -7 -18 -7 -30 0 -13 -4 -25 -9 -28 -5 -3 -11 -18 -14 -33 -6 -35 -38 -126 -58 -165 -5 -10 -9 -26 -9 -37 0 -28 -38 -108 -54 -114 -18 -7 -29 7 -46 63 -8 25 -25 66 -37 92 -13 27 -23 52 -23 58 0 6 -4 18 -9 28 -4 9 -15 37 -24 62 -9 25 -21 61 -28 80 -6 19 -16 43 -20 52 -5 10 -9 24 -9 32 0 8 -6 27 -14 43 -15 30 -26 57 -47 113 -39 106 -119 207 -187 236 -19 8 -61 14 -93 14 -109 0 -171 -61 -260 -255 -24 -54 -37 -115 -46 -210 -3 -33 -9 -64 -13 -70 -4 -5 -11 -59 -15 -120 -4 -60 -11 -137 -16 -170 -5 -33 -9 -268 -9 -522 -1 -443 0 -463 19 -501 33 -65 83 -88 167 -77 45 5 59 13 93 48 23 23 41 49 41 57 0 9 4 20 9 26 17 19 45 152 61 289 4 44 16 134 25 200 10 66 21 158 25 205 13 139 21 165 51 168 28 3 34 -6 84 -123 25 -59 49 -109 55 -115 3 -3 17 -29 32 -57 66 -125 165 -203 259 -203 53 0 143 45 182 90 18 21 52 78 76 126 24 49 48 97 52 106 5 10 9 26 9 36 0 10 4 22 9 27 4 6 16 35 26 65 37 114 64 170 81 170 15 0 19 -16 29 -95 3 -27 10 -72 16 -100 12 -59 26 -153 37 -251 5 -38 12 -75 16 -82 3 -6 11 -39 16 -74 16 -111 21 -132 41 -175 10 -24 19 -45 19 -48 0 -18 70 -96 98 -109 90 -44 208 16 237 119 20 71 3 592 -21 669 -7 20 -10 44 -34 216 -5 36 -16 94 -25 130 -10 36 -19 82 -22 103 -3 20 -9 40 -14 43 -5 3 -9 17 -9 31 0 25 -25 111 -41 145 -5 10 -9 25 -9 33 0 8 -4 23 -9 33 -4 9 -16 35 -27 57 -41 88 -91 150 -151 188 -35 22 -55 27 -107 27 l-64 0 -59 -57z"/>
<path d="M29020 14399 c-261 -15 -378 -50 -462 -136 -44 -47 -71 -105 -92 -202 -13 -61 -16 -148 -15 -525 0 -415 2 -458 20 -536 11 -47 23 -98 26 -114 7 -35 122 -154 172 -179 19 -9 46 -17 61 -17 14 0 31 -5 38 -12 17 -17 616 -18 633 0 7 6 21 12 30 12 32 0 120 54 155 94 32 38 34 43 34 117 0 43 -4 81 -10 84 -5 3 -10 14 -10 24 0 32 -68 66 -161 81 -48 7 -104 10 -125 7 -58 -9 -266 8 -294 24 -14 8 -37 27 -52 43 -24 25 -28 38 -28 86 0 99 10 103 315 130 122 10 148 16 204 43 68 33 91 71 91 148 0 61 -2 67 -32 95 -59 54 -89 62 -278 75 -269 18 -305 34 -305 134 0 45 4 58 27 82 41 43 146 66 378 83 147 11 166 17 216 65 l44 42 0 77 c0 85 -20 139 -62 166 -27 18 -292 22 -518 9z"/>
<path d="M26487 14369 c-68 -56 -80 -105 -80 -334 0 -209 31 -607 49 -637 4 -6 11 -41 15 -77 15 -120 44 -249 60 -266 5 -5 9 -19 9 -31 0 -13 5 -26 10 -29 6 -3 10 -14 10 -23 0 -57 97 -179 173 -217 42 -21 183 -20 228 1 57 28 152 104 190 153 54 69 142 199 174 256 15 28 33 57 41 66 8 8 14 23 14 32 0 9 4 17 9 17 5 0 11 8 14 18 3 9 24 49 46 89 21 40 46 85 54 100 56 108 78 152 103 211 9 20 25 55 35 76 11 22 19 46 19 53 0 13 3 21 33 81 9 19 17 42 17 52 0 10 4 21 9 24 5 3 11 20 14 38 3 18 11 60 17 93 20 106 -1 180 -68 235 -33 27 -43 30 -108 30 -44 0 -83 -6 -102 -16 -31 -15 -111 -109 -144 -170 -24 -43 -59 -115 -68 -139 -5 -11 -15 -38 -25 -60 -27 -66 -34 -84 -46 -112 -6 -16 -17 -41 -25 -56 -8 -16 -14 -37 -14 -47 0 -10 -4 -22 -10 -25 -5 -3 -10 -15 -10 -26 0 -10 -4 -27 -9 -37 -21 -42 -41 -94 -41 -107 0 -9 -4 -23 -9 -33 -21 -39 -41 -91 -41 -105 0 -9 -4 -19 -10 -22 -5 -3 -10 -15 -10 -25 0 -22 -30 -42 -47 -32 -6 4 -13 43 -17 87 -8 122 -37 292 -57 340 -4 11 -10 40 -13 65 -14 133 -24 198 -34 217 -7 12 -12 34 -12 49 0 45 -46 164 -83 215 -29 39 -80 59 -152 59 -64 0 -74 -3 -108 -31z"/>
<path d="M28008 14383 c-16 -2 -45 -24 -70 -52 -40 -44 -50 -67 -89 -195 -5 -16 -9 -52 -9 -80 0 -28 -5 -69 -10 -90 -14 -64 -22 -743 -10 -901 16 -197 21 -239 31 -250 5 -5 9 -17 9 -26 0 -17 12 -43 40 -87 21 -33 75 -53 145 -54 118 -1 177 51 214 190 17 60 18 1320 2 1350 -6 11 -11 31 -11 44 0 31 -47 122 -72 137 -21 13 -127 22 -170 14z"/>
<path d="M11683 13348 c-22 -11 -23 -17 -25 -142 -5 -258 -4 -267 33 -298 18 -16 44 -28 56 -28 13 0 23 -4 23 -8 0 -4 20 -14 44 -21 25 -7 51 -20 59 -29 31 -36 86 -217 87 -285 1 -96 87 -27 135 108 17 49 42 191 35 205 -4 8 -10 51 -14 95 -12 137 -37 195 -119 279 -64 64 -132 103 -202 117 -22 4 -51 10 -65 13 -14 3 -35 0 -47 -6z"/>
<path d="M7846 13316 c-16 -25 -17 -80 -12 -844 6 -938 12 -1059 57 -1162 52 -117 105 -186 189 -243 25 -17 47 -33 50 -36 11 -13 73 -41 89 -41 9 0 21 -4 26 -9 6 -5 44 -12 85 -14 41 -3 120 -12 175 -22 55 -9 132 -20 170 -25 141 -18 216 -29 236 -35 40 -13 176 -34 344 -52 39 -5 76 -12 83 -17 7 -4 50 -12 95 -17 137 -15 218 -27 302 -44 44 -9 114 -20 155 -25 156 -19 208 -27 218 -34 12 -7 140 -24 242 -32 36 -3 69 -10 75 -15 5 -5 32 -9 60 -9 27 -1 70 -5 95 -11 185 -41 536 -65 644 -44 22 4 60 19 85 33 26 13 58 31 72 38 39 21 137 122 176 183 62 96 91 172 117 306 14 69 16 174 14 779 l-3 699 -40 12 c-64 20 -171 41 -315 65 -30 4 -86 16 -125 25 -38 9 -90 19 -115 22 -25 3 -49 9 -54 14 -6 5 -32 9 -59 9 -26 0 -57 4 -67 10 -22 12 -199 42 -345 59 -38 4 -80 13 -92 19 -12 7 -40 12 -62 12 -22 0 -43 5 -46 10 -3 6 -22 10 -42 10 -20 0 -52 4 -72 9 -61 16 -143 33 -201 43 -134 22 -170 28 -245 43 -84 17 -147 28 -255 45 -36 5 -101 17 -145 26 -92 17 -158 30 -230 42 -28 4 -56 11 -63 16 -12 7 -47 14 -182 36 -30 5 -91 16 -135 25 -90 18 -160 31 -237 44 -29 4 -89 16 -133 26 -75 16 -107 22 -230 43 -28 4 -56 12 -64 16 -14 9 -96 22 -207 32 -57 6 -61 5 -78 -20z m771 -1127 c15 -6 60 -16 98 -21 39 -5 99 -13 135 -18 36 -5 97 -13 136 -18 39 -5 77 -13 85 -18 8 -5 50 -12 94 -16 106 -10 201 -23 310 -43 50 -9 119 -21 155 -25 94 -13 181 -27 210 -34 14 -4 59 -11 100 -17 41 -5 104 -14 140 -20 36 -5 101 -13 145 -17 44 -4 87 -12 95 -17 7 -5 46 -12 84 -17 39 -4 100 -12 136 -17 36 -6 98 -15 139 -20 41 -6 81 -13 90 -17 17 -7 98 -19 216 -33 69 -9 216 -32 305 -50 80 -15 80 -15 80 -91 0 -38 -4 -72 -10 -75 -5 -3 -10 -14 -10 -24 0 -25 -34 -53 -120 -98 -29 -15 -84 -16 -155 -2 -47 9 -99 16 -285 39 -115 14 -213 29 -230 36 -8 4 -58 10 -110 15 -135 12 -243 25 -260 33 -8 3 -55 11 -105 17 -49 6 -121 15 -160 20 -38 5 -106 13 -150 17 -44 4 -86 11 -93 16 -7 4 -47 10 -90 12 -42 3 -84 8 -92 11 -8 4 -49 10 -90 14 -41 4 -100 10 -130 13 -67 8 -230 34 -288 47 -23 5 -74 9 -113 9 -39 0 -80 5 -91 11 -38 20 -51 -9 -65 -148 -20 -194 -23 -210 -49 -238 -19 -21 -32 -25 -78 -25 -51 0 -57 3 -86 38 -17 20 -33 48 -37 62 -3 14 -11 31 -17 39 -7 9 -10 119 -9 334 1 296 2 322 19 334 22 16 113 17 151 2z"/>
<path d="M3829 12308 c-8 -13 -20 -34 -26 -48 -6 -14 -23 -51 -37 -83 -14 -32 -26 -64 -26 -72 0 -8 -4 -15 -10 -15 -5 0 -10 -6 -10 -14 0 -8 -6 -27 -14 -43 -8 -15 -19 -40 -25 -55 -20 -51 -33 -83 -46 -113 -28 -68 -34 -81 -45 -112 -21 -56 -38 -64 -162 -74 -136 -11 -176 -16 -248 -30 -132 -26 -132 -46 -2 -178 274 -279 269 -273 244 -358 -6 -21 -16 -65 -22 -98 -6 -33 -16 -78 -22 -100 -6 -22 -12 -58 -15 -80 -2 -22 -8 -49 -13 -60 -5 -11 -11 -36 -14 -55 -3 -19 -9 -47 -12 -62 -11 -50 19 -44 118 25 51 35 115 76 142 91 27 15 63 37 80 49 35 25 59 40 98 62 25 14 31 13 65 -2 21 -10 75 -41 121 -70 45 -29 85 -53 87 -53 7 0 104 -68 135 -95 44 -37 108 -67 116 -54 10 17 5 172 -7 184 -5 5 -9 20 -9 35 -1 14 -7 36 -15 50 -8 14 -14 39 -15 55 0 17 -4 35 -9 40 -5 6 -12 33 -15 60 -4 28 -9 69 -12 92 -7 52 -8 52 155 222 71 75 154 167 185 206 70 88 65 97 -62 106 -97 7 -227 24 -315 43 -45 9 -62 18 -72 36 -24 43 -65 138 -65 150 0 5 -4 18 -10 28 -23 41 -60 130 -60 143 0 8 -4 19 -8 25 -5 5 -21 41 -36 79 -16 39 -32 78 -37 87 -5 10 -9 26 -9 37 0 10 -6 24 -14 30 -10 9 -17 6 -27 -11z"/>
<path d="M17848 11532 c-36 -4 -59 -56 -35 -79 20 -20 207 -24 252 -5 27 11 64 52 68 75 2 8 -235 16 -285 9z m212 -42 c-20 -13 -110 -13 -110 0 0 6 27 10 63 10 44 0 58 -3 47 -10z"/>
<path d="M16135 11380 c-25 -9 -38 -25 -55 -68 -12 -30 -10 -35 15 -72 37 -53 80 -56 120 -8 32 38 30 84 -7 121 -29 30 -47 37 -73 27z"/>
<path d="M25580 11362 c-38 -38 -38 -61 -1 -96 25 -24 35 -27 63 -22 48 9 64 38 43 82 -9 19 -21 34 -27 34 -6 0 -19 7 -29 16 -17 15 -20 14 -49 -14z m70 -50 c0 -28 -11 -34 -26 -14 -14 19 -10 32 12 32 8 0 14 -8 14 -18z"/>
<path d="M18323 11362 c-28 -23 -38 -73 -22 -117 13 -35 23 -43 34 -25 3 5 18 7 33 4 21 -4 33 1 56 25 l29 31 -18 39 c-12 27 -27 43 -48 50 -38 14 -38 14 -64 -7z"/>
<path d="M26982 11357 c-29 -31 -28 -69 4 -101 51 -50 114 -23 114 49 0 36 -8 48 -37 64 -33 17 -57 13 -81 -12z m75 -52 c2 -11 0 -14 -3 -7 -3 6 -15 12 -25 12 -12 0 -17 5 -14 11 11 16 40 6 42 -16z m-22 -15 c3 -5 1 -10 -4 -10 -6 0 -11 5 -11 10 0 6 2 10 4 10 3 0 8 -4 11 -10z"/>
<path d="M27447 11356 c-69 -38 -98 -110 -54 -138 37 -25 77 -27 122 -7 57 25 73 45 57 70 -7 10 -12 26 -12 34 0 8 -9 15 -19 15 -11 0 -28 11 -38 23 l-18 24 -38 -21z m92 -82 c-17 -21 -31 -17 -19 6 6 11 15 18 21 14 6 -4 6 -11 -2 -20z"/>
<path d="M29186 11354 c-38 -39 -35 -77 10 -108 34 -23 37 -23 64 -8 40 23 48 72 19 112 -28 37 -58 38 -93 4z m54 -74 c0 -5 -4 -10 -9 -10 -6 0 -13 5 -16 10 -3 6 1 10 9 10 9 0 16 -4 16 -10z"/>
<path d="M23123 11348 c-34 -44 -24 -87 25 -111 43 -21 64 -16 82 18 19 36 5 74 -35 91 -42 17 -60 18 -72 2z m43 -33 c-3 -9 0 -15 9 -15 8 0 15 -7 15 -15 0 -9 -9 -15 -25 -15 -27 0 -33 21 -12 45 16 19 21 19 13 0z"/>
<path d="M26401 11347 c-8 -8 -11 -152 -11 -472 0 -254 2 -464 4 -466 3 -3 29 -2 58 1 l53 5 5 121 c5 120 15 154 45 154 16 0 153 -143 201 -210 20 -28 44 -55 54 -60 20 -11 118 -11 125 0 2 4 -6 20 -18 37 -40 56 -105 138 -123 158 -11 11 -38 44 -62 74 -24 30 -52 61 -62 68 -11 8 -20 18 -20 24 0 5 44 55 99 111 182 190 185 196 88 183 -42 -6 -59 -15 -87 -44 -143 -150 -189 -200 -205 -224 -10 -15 -22 -26 -28 -24 -6 2 -9 98 -8 272 1 149 -2 275 -6 281 -11 16 -89 24 -102 11z"/>
<path d="M18862 11338 c-15 -15 -18 -923 -2 -933 5 -3 32 -3 60 1 l50 7 0 112 c0 105 2 114 25 139 13 14 28 26 33 26 10 0 58 -51 132 -141 101 -122 109 -128 175 -131 51 -3 60 0 59 13 -1 14 -88 131 -131 177 -7 7 -29 34 -50 60 -21 26 -46 56 -56 67 -10 11 -23 28 -28 38 -10 18 -12 17 161 200 55 58 75 85 68 92 -3 3 -72 8 -99 6 -16 -1 -151 -134 -228 -224 -22 -26 -44 -47 -48 -47 -4 0 -10 123 -13 272 l-5 273 -45 3 c-26 2 -50 -2 -58 -10z"/>
<path d="M19483 11343 c-10 -4 -13 -107 -13 -469 l0 -464 60 0 60 0 0 191 c0 221 6 252 66 318 l42 46 70 -1 c77 -1 93 -9 120 -58 14 -26 18 -72 22 -266 l5 -235 58 -3 57 -3 -1 228 c0 267 -10 327 -59 385 -42 51 -83 68 -162 68 -73 0 -129 -23 -172 -69 -17 -17 -33 -31 -38 -31 -4 0 -8 81 -8 179 0 154 -2 180 -16 185 -18 7 -73 7 -91 -1z"/>
<path d="M22529 11340 c-15 -9 -16 -54 -14 -467 2 -252 3 -460 4 -463 1 -3 26 -6 56 -6 30 0 55 3 55 6 1 3 3 95 6 205 3 110 10 216 16 235 14 46 78 106 122 114 63 12 109 -2 136 -42 24 -35 25 -41 30 -276 l5 -241 57 -3 c55 -3 58 -2 64 24 4 14 5 135 2 268 -5 237 -5 242 -30 281 -63 100 -180 132 -291 80 -31 -15 -57 -31 -57 -36 0 -4 -10 -13 -21 -20 -17 -8 -23 -8 -29 1 -4 7 -7 83 -6 169 2 86 -2 162 -7 169 -11 14 -75 16 -98 2z"/>
<path d="M24123 11343 c-21 -4 -23 -10 -23 -71 -1 -64 0 -848 0 -865 0 -12 104 -5 112 7 4 6 8 103 8 216 1 231 6 250 72 303 49 40 127 48 174 19 61 -39 69 -72 71 -317 2 -121 3 -223 3 -227 0 -11 100 -6 108 6 4 6 4 124 1 261 -6 265 -10 291 -60 344 -60 64 -185 81 -265 36 -25 -14 -56 -38 -69 -53 -13 -15 -26 -24 -30 -20 -4 4 -7 82 -6 173 1 115 -2 171 -10 181 -11 14 -40 16 -86 7z m19 -55 c-7 -7 -12 -8 -12 -2 0 14 12 26 19 19 2 -3 -1 -11 -7 -17z"/>
<path d="M25115 11328 c-3 -7 -4 -218 -3 -468 l3 -454 55 1 55 1 0 463 0 464 -53 3 c-36 2 -54 -1 -57 -10z"/>
<path d="M14512 10863 l3 -448 50 -6 c28 -3 52 -5 54 -3 2 2 5 148 7 326 2 215 7 323 14 322 25 -2 30 -5 30 -14 0 -9 144 -207 160 -220 4 -3 21 -26 38 -52 18 -25 38 -52 45 -60 7 -7 26 -31 42 -53 17 -22 33 -42 36 -45 3 -3 36 -45 73 -95 82 -108 85 -111 127 -110 l34 0 0 445 0 445 -60 0 -60 0 0 -304 c-1 -325 -5 -350 -45 -271 -11 22 -37 62 -58 89 -20 26 -50 65 -67 87 -16 21 -50 64 -75 94 -25 30 -59 73 -75 95 -16 22 -36 47 -45 55 -8 8 -41 50 -73 93 l-57 77 -50 0 -50 0 2 -447z"/>
<path d="M17806 11288 c-14 -13 -27 -36 -28 -53 l-3 -30 75 -6 c104 -9 235 -10 254 -3 9 4 16 18 16 34 0 16 5 32 10 35 6 3 10 10 10 15 0 13 -120 30 -218 30 -80 0 -94 -3 -116 -22z"/>
<path d="M28550 11260 c-10 -6 -16 -35 -20 -97 l-5 -88 -52 0 c-61 0 -73 -9 -66 -52 5 -33 22 -43 75 -43 16 0 31 -8 37 -18 5 -10 9 -133 9 -280 0 -144 3 -265 6 -270 6 -10 101 -10 111 0 4 3 7 129 8 280 l2 273 58 3 58 3 -3 47 -3 47 -55 5 -55 5 -7 87 c-3 48 -9 92 -13 98 -8 12 -65 13 -85 0z"/>
<path d="M27865 11248 c-3 -7 -6 -49 -7 -93 l-3 -80 -37 -3 c-36 -3 -36 -3 -33 -45 2 -23 4 -45 4 -49 1 -5 10 -8 20 -8 53 0 52 8 51 -274 0 -143 0 -268 0 -277 0 -12 12 -16 55 -17 l55 -1 0 288 c0 318 -4 301 64 301 38 0 56 15 56 47 0 30 -31 46 -64 33 -45 -17 -53 -6 -58 85 -3 46 -9 88 -12 94 -10 15 -86 14 -91 -1z"/>
<path d="M15930 11074 c-16 -40 -12 -63 14 -89 26 -26 54 -25 81 4 14 16 13 22 -11 64 -31 56 -68 65 -84 21z m44 -40 c5 -14 4 -15 -9 -4 -17 14 -19 20 -6 20 5 0 12 -7 15 -16z"/>
<path d="M15548 11065 c-180 -66 -266 -341 -158 -500 86 -126 229 -190 341 -154 100 32 164 86 212 178 23 46 27 64 27 143 0 123 -18 174 -89 247 -74 77 -128 101 -223 100 -40 0 -90 -7 -110 -14z m169 -94 c78 -23 133 -119 133 -234 0 -76 -17 -128 -56 -168 -42 -44 -76 -59 -137 -59 -73 0 -123 36 -160 114 -35 73 -38 175 -7 234 50 96 136 139 227 113z"/>
<path d="M16099 11072 c-3 -37 2 -655 6 -661 6 -11 93 -7 103 5 4 5 5 155 2 334 l-5 325 -52 2 c-29 1 -53 -2 -54 -5z"/>
<path d="M16617 11074 c-4 -4 -7 -157 -7 -340 l0 -332 58 3 57 4 5 218 c3 131 10 228 17 243 50 108 174 134 231 47 27 -40 27 -41 32 -271 l5 -231 50 -6 c28 -3 53 -4 58 -2 4 2 7 89 7 193 0 221 9 266 62 323 29 31 45 40 80 44 61 7 93 -9 120 -59 22 -41 23 -55 25 -263 2 -121 5 -225 7 -232 5 -12 89 -13 101 -2 2 3 5 119 6 257 l0 252 -28 51 c-38 70 -85 100 -168 107 -51 4 -75 1 -108 -14 -54 -24 -97 -62 -97 -86 0 -27 -10 -22 -60 30 -46 49 -98 72 -158 72 -42 0 -70 -12 -125 -54 -27 -20 -52 -34 -57 -31 -6 4 -10 22 -10 41 0 30 -3 34 -27 34 -16 0 -37 3 -48 6 -11 3 -24 2 -28 -2z m878 -614 c3 -5 1 -10 -4 -10 -6 0 -11 5 -11 10 0 6 2 10 4 10 3 0 8 -4 11 -10z"/>
<path d="M17800 11054 c-77 -43 -150 -128 -150 -172 0 -10 -5 -23 -12 -30 -7 -7 -11 -49 -11 -114 0 -94 3 -107 28 -153 56 -99 115 -149 208 -175 129 -35 286 42 352 173 22 44 25 64 25 149 0 127 -21 186 -92 258 -71 72 -113 90 -218 90 -73 0 -91 -4 -130 -26z m212 -87 c36 -15 88 -81 88 -111 0 -8 5 -18 10 -21 6 -3 10 -41 10 -83 0 -160 -64 -242 -187 -242 -87 0 -142 47 -179 152 -42 118 17 264 126 313 39 17 78 15 132 -8z"/>
<path d="M20178 11073 l-48 -4 0 -239 c0 -234 1 -241 25 -296 14 -31 36 -67 50 -80 26 -24 111 -54 152 -54 52 0 116 24 150 56 20 19 39 34 44 34 4 0 9 -17 11 -37 l3 -38 53 -3 52 -3 -2 328 -3 328 -52 3 -53 3 0 -211 c0 -240 -4 -256 -70 -313 -38 -32 -50 -37 -96 -37 -42 0 -59 5 -84 27 -17 14 -37 38 -43 52 -7 16 -14 116 -17 255 -3 141 -9 230 -15 231 -5 1 -31 0 -57 -2z"/>
<path d="M20802 11065 c-4 -5 -6 -155 -4 -332 2 -240 6 -322 15 -326 7 -2 32 -1 57 2 l45 6 5 205 c5 188 7 209 28 248 30 57 93 102 143 102 120 0 142 -55 143 -360 l1 -204 58 -2 c31 -1 57 1 57 5 1 3 1 110 2 236 1 246 -5 288 -50 357 -66 102 -230 103 -333 3 -46 -44 -56 -40 -61 24 l-3 45 -48 1 c-27 0 -51 -4 -55 -10z"/>
<path d="M21652 11065 c-59 -26 -124 -79 -145 -120 -80 -149 -65 -328 35 -436 41 -45 66 -58 142 -76 49 -11 71 -12 111 -2 59 14 96 31 115 54 7 9 22 21 33 26 18 10 19 8 12 -53 -8 -68 -44 -134 -91 -165 -59 -38 -188 -34 -266 9 l-37 21 -28 -33 c-35 -42 -37 -66 -5 -62 14 2 22 -2 22 -11 0 -24 133 -57 228 -57 68 0 93 5 137 25 96 46 147 124 163 255 9 73 7 593 -3 618 -3 7 -25 12 -59 12 -53 0 -56 -2 -62 -27 -12 -58 -14 -60 -36 -30 -33 45 -87 67 -165 67 -37 -1 -83 -7 -101 -15z m204 -106 c28 -13 55 -37 72 -63 25 -38 27 -49 27 -146 -1 -121 -9 -141 -83 -190 -96 -63 -215 -29 -261 76 -15 33 -21 67 -21 121 0 100 32 162 105 204 57 34 89 34 161 -2z"/>
<path d="M23444 11071 c-2 -2 -4 -152 -4 -333 l0 -328 55 0 c37 0 55 4 55 13 1 6 0 97 0 201 -1 185 0 190 25 243 46 93 140 131 216 86 59 -35 68 -73 71 -323 l3 -225 58 -3 57 -3 0 254 c0 247 -1 255 -24 303 -37 75 -86 111 -166 121 -78 9 -114 -3 -173 -57 -30 -27 -57 -47 -61 -43 -3 3 -6 25 -6 49 l0 42 -51 4 c-28 1 -53 1 -55 -1z"/>
<path d="M25514 11061 c-65 -30 -110 -76 -148 -155 -33 -68 -36 -80 -36 -165 0 -81 4 -99 30 -155 49 -107 93 -146 190 -173 25 -7 57 -12 72 -13 40 0 128 42 162 78 16 17 33 29 38 26 4 -3 8 -25 8 -48 l0 -43 53 -6 c28 -2 53 -4 54 -3 1 1 3 152 4 336 l1 335 -55 1 -56 1 -3 -50 c-2 -29 -8 -52 -15 -55 -7 -2 -13 3 -13 10 0 19 -47 61 -92 81 -48 23 -142 22 -194 -2z m178 -87 c70 -12 128 -112 128 -222 0 -159 -62 -242 -182 -242 -63 0 -95 18 -141 81 -31 43 -32 46 -32 150 0 100 2 108 30 155 35 57 97 97 135 89 14 -3 42 -8 62 -11z"/>
<path d="M27042 11073 l-52 -4 0 -324 c1 -228 4 -326 12 -331 6 -4 35 -8 65 -9 l53 -1 -2 334 c-2 214 -7 336 -13 337 -5 0 -34 -1 -63 -2z"/>
<path d="M27379 11055 c-201 -105 -241 -459 -65 -587 51 -38 140 -68 202 -68 62 0 158 37 193 73 22 24 22 26 5 51 -30 47 -48 50 -97 16 -38 -25 -54 -30 -103 -29 -37 0 -70 7 -89 18 -36 21 -85 97 -88 136 l-2 27 217 2 c119 0 219 4 223 8 12 11 -16 150 -41 203 -27 58 -93 129 -146 156 -54 28 -149 25 -209 -6z m191 -103 c44 -33 71 -82 68 -125 l-3 -39 -140 0 c-77 0 -146 1 -152 1 -19 1 -16 47 7 91 45 88 151 123 220 72z"/>
<path d="M29005 11069 c-75 -29 -158 -122 -188 -213 -33 -97 -17 -249 33 -310 54 -67 77 -88 123 -110 108 -53 210 -43 277 26 41 43 54 39 52 -13 -1 -35 6 -39 62 -45 36 -3 45 -1 48 13 2 9 2 162 0 340 l-3 323 -38 0 c-45 0 -57 -11 -66 -62 -4 -21 -11 -38 -16 -38 -4 0 -23 15 -41 34 -18 18 -43 39 -56 45 -32 17 -151 23 -187 10z m183 -121 c66 -40 112 -135 112 -234 0 -57 -44 -139 -93 -175 -31 -23 -51 -29 -89 -29 -55 0 -80 10 -121 49 -26 24 -35 40 -66 114 -31 78 8 215 79 274 42 35 120 36 178 1z"/>
<path d="M29672 11049 c-90 -53 -137 -113 -171 -220 -33 -104 5 -242 93 -337 70 -76 219 -114 317 -80 42 14 139 75 139 86 0 23 -51 62 -80 62 -16 0 -30 -4 -30 -8 0 -17 -73 -42 -124 -42 -71 0 -135 41 -167 108 -29 59 -32 195 -6 252 44 98 157 138 252 90 51 -26 67 -25 95 5 23 24 23 25 5 45 -10 11 -40 31 -68 45 -41 20 -65 25 -126 25 -67 0 -83 -4 -129 -31z"/>
<path d="M18335 11058 c-3 -7 -4 -157 -2 -332 l2 -320 55 0 55 -1 3 333 2 332 -55 0 c-35 0 -57 -5 -60 -12z"/>
<path d="M23182 10743 l3 -328 53 -5 c29 -3 58 -3 63 1 7 4 9 114 7 330 l-3 324 -63 3 -62 3 2 -328z"/>
<path d="M5390 10678 c-68 -173 -90 -192 -234 -204 -47 -4 -86 -10 -86 -15 0 -8 98 -104 140 -138 23 -18 25 -25 24 -105 -1 -47 -7 -109 -14 -136 -7 -28 -10 -54 -6 -57 3 -3 24 6 46 21 22 14 43 26 46 26 4 0 26 16 50 35 23 19 49 35 58 35 9 0 39 -15 68 -33 29 -18 70 -41 90 -50 20 -10 40 -22 43 -27 3 -6 13 -10 20 -10 20 0 11 72 -21 167 -27 81 -30 109 -10 120 7 4 33 25 57 45 24 20 59 49 77 64 37 30 37 48 1 51 -13 1 -60 5 -104 9 -80 6 -115 22 -115 51 0 7 -10 30 -23 51 -12 20 -33 58 -46 85 -13 26 -30 47 -36 47 -7 0 -18 -15 -25 -32z"/>
<path d="M8178 10594 c-4 -3 -60 -12 -125 -21 -184 -23 -268 -39 -363 -68 -30 -9 -66 -19 -80 -22 -14 -2 -34 -8 -45 -12 -38 -15 -90 -33 -110 -38 -20 -5 -29 -8 -100 -38 -22 -9 -49 -20 -60 -24 -11 -5 -31 -13 -45 -18 -14 -6 -59 -27 -100 -47 -41 -20 -81 -36 -87 -36 -7 0 -13 -4 -13 -9 0 -5 -12 -14 -27 -20 -29 -10 -84 -42 -93 -52 -3 -3 -32 -22 -65 -42 -33 -20 -71 -47 -85 -60 -14 -13 -40 -32 -57 -42 -18 -11 -33 -23 -33 -27 0 -4 -6 -8 -14 -8 -8 0 -58 -42 -111 -92 -54 -51 -109 -102 -124 -112 -62 -46 -335 -385 -359 -446 -3 -8 -20 -39 -39 -68 -18 -29 -33 -56 -33 -61 0 -14 -34 -71 -42 -71 -5 0 -8 -9 -8 -19 0 -11 -4 -23 -10 -26 -5 -3 -10 -15 -10 -26 0 -10 -4 -19 -8 -19 -9 0 -42 -70 -42 -88 0 -7 -4 -20 -9 -30 -45 -92 -61 -130 -61 -147 0 -16 8 -10 37 25 75 90 207 211 353 321 19 15 44 36 55 46 25 24 132 93 144 93 5 0 11 5 13 11 5 16 126 90 228 140 199 97 337 159 355 159 7 0 17 5 20 10 3 6 14 10 24 10 10 0 32 7 47 15 16 8 37 15 46 15 9 0 19 4 22 9 3 5 20 11 38 14 52 8 151 39 190 58 10 5 31 9 47 9 17 0 33 5 36 10 3 6 22 10 41 10 19 0 51 7 71 15 19 8 50 15 69 15 18 0 36 5 39 10 3 6 30 10 60 10 30 0 66 5 82 11 57 22 279 33 693 32 339 0 450 -3 550 -17 69 -9 157 -21 195 -26 145 -19 246 -39 303 -61 13 -5 36 -9 52 -9 16 0 32 -4 35 -10 3 -5 18 -10 33 -10 15 -1 38 -7 52 -15 14 -8 37 -14 52 -15 15 0 30 -4 33 -10 3 -5 19 -10 34 -10 15 0 31 -4 37 -8 5 -4 36 -16 69 -27 33 -10 64 -22 69 -27 6 -4 16 -8 24 -8 7 0 39 -12 70 -26 31 -14 66 -29 77 -34 26 -11 156 -71 250 -117 41 -20 80 -42 86 -49 6 -8 17 -14 24 -14 8 0 15 -3 17 -7 2 -5 19 -17 38 -27 59 -33 253 -162 296 -198 45 -37 127 -97 155 -114 44 -26 235 -226 287 -301 60 -87 81 -89 38 -4 -14 28 -26 58 -27 68 0 10 -9 32 -20 48 -10 17 -21 37 -25 45 -3 8 -9 24 -14 35 -15 39 -91 191 -130 260 -22 39 -47 84 -56 100 -9 17 -20 32 -24 35 -4 3 -16 19 -26 35 -29 45 -132 183 -141 187 -4 1 -37 36 -73 77 -79 90 -134 147 -221 226 -95 88 -357 282 -424 315 -16 8 -54 29 -83 47 -29 18 -59 33 -67 33 -8 0 -15 4 -15 9 0 5 -8 11 -17 15 -10 3 -25 10 -33 15 -14 9 -108 52 -157 72 -75 30 -141 58 -165 70 -10 5 -25 9 -33 9 -8 0 -23 4 -33 9 -38 19 -137 49 -187 58 -16 2 -39 8 -50 12 -58 23 -126 41 -152 41 -16 0 -33 4 -38 9 -6 5 -30 12 -55 15 -63 7 -196 25 -250 32 -60 9 -704 16 -712 8z"/>
<path d="M4434 10443 c-3 -10 -11 -31 -19 -48 -7 -16 -19 -48 -27 -70 -7 -22 -23 -59 -35 -82 -13 -23 -23 -48 -23 -56 0 -29 -45 -57 -92 -57 -25 0 -65 -7 -88 -15 -23 -8 -55 -15 -70 -15 -16 0 -35 -3 -44 -6 -34 -13 -17 -35 89 -114 26 -19 67 -53 92 -74 l45 -40 -6 -60 c-8 -91 -23 -198 -31 -222 -13 -40 14 -36 87 13 104 68 116 73 160 73 28 0 47 -7 66 -25 15 -14 40 -32 57 -40 16 -8 50 -26 75 -40 24 -14 48 -21 53 -16 4 4 0 41 -9 82 -9 41 -19 94 -21 119 -3 25 -9 49 -14 54 -5 6 -9 24 -9 42 0 26 10 40 51 75 28 24 59 48 68 53 8 5 25 18 36 29 11 10 35 30 53 44 62 49 47 55 -170 71 -53 4 -98 9 -101 12 -21 25 -77 161 -77 188 0 7 -11 30 -24 51 -13 21 -26 49 -28 62 -4 29 -36 38 -44 12z"/>
<path d="M27414 10247 c-9 -26 4 -38 26 -25 15 10 22 10 32 0 9 -9 8 -12 -5 -12 -21 0 -22 -19 -1 -27 41 -15 82 35 52 65 -15 15 -55 16 -63 2 -5 -8 -11 -7 -21 1 -11 9 -15 8 -20 -4z"/>
</g>
</svg>